<svg id="Layer_5" enable-background="new 0 0 64 64" height="512" viewBox="0 0 64 64" width="512" xmlns="http://www.w3.org/2000/svg"><g><g><g><path d="m18 56-2 6h-8v-6z" fill="#b4dd7f"/></g><g><path d="m25.96 31.66c.82.14 1.61.38 2.36.71v.01c-1.37.63-2.32 2.01-2.32 3.62v8c-1.1 0-2 .9-2 2v2h-7.5c-.92 0-1.76.52-2.17 1.34l-.33.66h-6v-4h-6v-4.85c0-1.61.4-3.17 1.14-4.54.74-1.38 1.8-2.57 3.14-3.47 1.13-.75 2.41-1.26 3.76-1.48l2.2-.37 1.76 9.71 4-6 4 6 1.76-9.71z" fill="#b4dd7f"/></g><g><path d="m23.76 31.29-1.76 9.71-4-6 4-4z" fill="#a0d468"/></g><g><path d="m18 35-4 6-1.76-9.71 1.76-.29z" fill="#a0d468"/></g><g><path d="m54 25h8c0 2.21-1.79 4-4 4h-3c-.55 0-1 .45-1 1v4c0 .55.45 1 1 1h3c1.1 0 2.1.45 2.83 1.17.72.73 1.17 1.73 1.17 2.83h-8c-2.21 0-4-1.79-4-4v-6c0-2.21 1.79-4 4-4z" fill="#e6e9ed"/></g><g><path d="m44 34c0 .24.04.46.12.67l-.12.04-8 4.58v-3.29c0-.59-.13-1.15-.36-1.65l8.36-4.78.04.01c-.02.13-.04.28-.04.42z" fill="#e6e9ed"/></g><g><path d="m50 29v6 1h-4c-.86 0-1.61-.56-1.88-1.33-.08-.21-.12-.43-.12-.67v-4c0-.14.02-.29.04-.42.2-.9 1-1.58 1.96-1.58h4z" fill="#ccd1d9"/></g><g><path d="m26 44v-8c0-1.61.95-2.99 2.32-3.62.51-.25 1.08-.38 1.68-.38h2c1.62 0 3.01.96 3.64 2.35.23.5.36 1.06.36 1.65v3.29 4.71z" fill="#ccd1d9"/></g><g><circle cx="31" cy="38" fill="#fcd770" r="2"/></g><g><path d="m38 46v2h-9-5v-2c0-1.1.9-2 2-2h10c1.1 0 2 .9 2 2z" fill="#aab2bd"/></g><g><path d="m63 56v6h-47l2-6h1 10 10 9 4z" fill="#d3a06c"/></g><g><path d="m52 48h-13-1-9-5-7.5c.92 0 1.76.52 2.17 1.34l.33.66c.83 0 1.58.34 2.12.88s.88 1.29.88 2.12c0 1.66-1.34 3-3 3h10 10 9 4c1.1 0 2.1-.45 2.83-1.17.72-.73 1.17-1.73 1.17-2.83 0-2.21-1.79-4-4-4z" fill="#ccd1d9"/></g><g><circle cx="49" cy="52" fill="#969faa" r="3"/></g><g><circle cx="39" cy="52" fill="#969faa" r="3"/></g><g><circle cx="29" cy="52" fill="#969faa" r="3"/></g><g><path d="m27 15c0-1.1-.9-2-2-2h-14c-1.1 0-2 .9-2 2v2h-1c-.69 0-1.33.23-1.84.63l-.87-3.46c-.19-.78-.29-1.57-.29-2.38 0-2.7 1.1-5.15 2.87-6.92s4.22-2.87 6.92-2.87h6.95c2 0 3.83 1.13 4.72 2.92l.54 1.08c1.18.3 2.18.97 2.88 1.87.71.91 1.12 2.04 1.12 3.25v1.36c0 .34-.03.69-.1 1.03l-.86 4.3c-.53-.5-1.25-.81-2.04-.81h-1z" fill="#656d78"/></g><g><path d="m8 50h6l.33-.66c.41-.82 1.25-1.34 2.17-1.34s1.76.52 2.17 1.34l.33.66c.83 0 1.58.34 2.12.88s.88 1.29.88 2.12c0 1.66-1.34 3-3 3h-1-10-2c-2.21 0-4-1.79-4-4v-6h6z" fill="#f0d0b4"/></g><g><path d="m9.4 23h-1.4c-.83 0-1.58-.34-2.12-.88s-.88-1.29-.88-2.12c0-.97.45-1.82 1.16-2.37.51-.4 1.15-.63 1.84-.63h1v2.47c0 1.18.24 2.33.71 3.38z" fill="#f0d0b4"/></g><g><path d="m21.3 27.51.7 3.49-4 4-4-4 .7-3.49c.9.32 1.85.49 2.82.49h.94c.98 0 1.94-.16 2.84-.49z" fill="#f0d0b4"/></g><g><path d="m30.04 17.81c.59.54.96 1.32.96 2.19 0 .83-.34 1.58-.88 2.12s-1.29.88-2.12.88h-1.4l-.31-.15c.47-1.05.71-2.2.71-3.38v-2.47h1c.79 0 1.51.31 2.04.81z" fill="#f0d0b4"/></g><g><path d="m27 19.47c0 1.18-.24 2.33-.71 3.38-.42.98-1.02 1.88-1.79 2.65-.8.8-1.74 1.42-2.77 1.85-.14.06-.28.11-.43.16-.9.33-1.86.49-2.84.49h-.94c-.97 0-1.92-.17-2.82-.49-1.19-.42-2.29-1.1-3.19-2.01h-.01c-.77-.77-1.37-1.67-1.79-2.65-.47-1.05-.71-2.2-.71-3.38v-2.47c0 1.1.9 2 2 2h3.76c.76 0 1.45-.43 1.79-1.11l.45-.89h2l.45.89c.34.68 1.03 1.11 1.79 1.11h3.76c1.1 0 2-.9 2-2z" fill="#f0d0b4"/></g><g><path d="m27 15v2c0 1.1-.9 2-2 2h-3.76c-.76 0-1.45-.43-1.79-1.11l-.45-.89h-2l-.45.89c-.34.68-1.03 1.11-1.79 1.11h-3.76c-1.1 0-2-.9-2-2v-2c0-1.1.9-2 2-2h14c1.1 0 2 .9 2 2z" fill="#69d6f4"/></g></g><g><path d="m31 41c1.654 0 3-1.346 3-3s-1.346-3-3-3-3 1.346-3 3 1.346 3 3 3zm0-4c.551 0 1 .448 1 1s-.449 1-1 1-1-.448-1-1 .449-1 1-1z"/><path d="m58 30c2.757 0 5-2.243 5-5v-1h-9c-2.045 0-3.802 1.237-4.576 3h-3.424c-1.251 0-2.323.771-2.772 1.861l-7.25 4.143c-.914-1.209-2.349-2.004-3.978-2.004h-2c-.59 0-1.148.121-1.673.309-.713-.285-1.447-.51-2.198-.635l-3.283-.548-.401-2.005c1.012-.465 1.948-1.101 2.759-1.911.655-.654 1.205-1.402 1.641-2.211h1.155c2.206 0 4-1.794 4-4 0-.94-.34-1.794-.885-2.478l.763-3.813c.081-.402.122-.817.122-1.23v-1.354c0-2.728-1.746-5.114-4.301-5.961l-.345-.69c-1.071-2.143-3.223-3.473-5.618-3.473h-6.942c-5.952 0-10.794 4.842-10.794 10.794 0 .882.108 1.763.322 2.618l.727 2.91c-.645.71-1.049 1.644-1.049 2.678 0 2.206 1.794 4 4 4h1.146c.436.803.988 1.548 1.653 2.212.811.809 1.746 1.445 2.757 1.91l-.401 2.005-3.283.548c-1.491.248-2.885.799-4.144 1.638-2.96 1.973-4.728 5.276-4.728 8.833v10.854c0 2.757 2.243 5 5 5h1v6h56v-2h-45.612l1.333-4h.279 29 4 11v-2h-7.026c.635-.838 1.026-1.87 1.026-3 0-2.757-2.243-5-5-5h-13v-1c0-1.302-.839-2.402-2-2.816v-3.318l6.775-3.872c.55.613 1.339 1.006 2.225 1.006h3.424c.774 1.763 2.531 3 4.576 3h9v-1c0-2.757-2.243-5-5-5h-3v-4zm-26 3c1.654 0 3 1.346 3 3v7h-8v-7c0-1.654 1.346-3 3-3zm-9.657-.929.256.043-1.14 6.272-2.172-3.259zm-12.343-17.071c0-.552.449-1 1-1h14c.551 0 .999.448 1 .999v2.003c-.001.551-.449.998-1 .998h-3.764c-.381 0-.724-.212-.894-.553l-.724-1.447h-3.236l-.724 1.447c-.17.341-.513.553-.894.553h-3.764c-.551 0-1-.448-1-1zm18 7h-.357c.229-.822.357-1.673.357-2.532v-1.468c1.103 0 2 .897 2 2s-.897 2-2 2zm-13.206-19h6.942c1.632 0 3.099.906 3.829 2.366l.746 1.492.446.111c1.91.478 3.243 2.186 3.243 4.154v1.354c0 .282-.028.563-.083.839l-.586 2.929c-.418-.149-.862-.245-1.331-.245v-1c0-.001 0-.002 0-.003v-4.997h-2v2.184c-.314-.112-.648-.184-1-.184h-14c-.352 0-.686.072-1 .184v-2.184h-2v5 1c-.41 0-.798.08-1.17.195l-.567-2.267c-.175-.698-.263-1.415-.263-2.134 0-4.849 3.945-8.794 8.794-8.794zm-6.794 19c-1.103 0-2-.897-2-2s.897-2 2-2v1.466c0 .869.124 1.718.348 2.534zm2.017-2.179c.31.108.637.179.983.179h3.764c1.144 0 2.171-.636 2.683-1.658l.171-.342h.764l.171.342c.511 1.022 1.539 1.658 2.683 1.658h3.764c.346 0 .672-.071.982-.179-.09 1.86-.871 3.656-2.191 4.974-1.422 1.42-3.312 2.202-5.32 2.202-.002 0-.004 0-.007 0l-.939-.001c-2.006-.001-3.893-.782-5.313-2.2-1.342-1.339-2.108-3.095-2.195-4.975zm7.506 9.175.938.001h.009c.703 0 1.392-.083 2.063-.231l.381 1.905-2.914 2.915-2.915-2.915.381-1.906c.669.148 1.357.231 2.057.231zm-3.866 3.075 3.057 3.056-2.172 3.259-1.14-6.272zm-6.82 1.906c1.021-.68 2.153-1.127 3.364-1.329l1.227-.205 2.031 11.171 3.541-5.311v6.697h2v-6.697l3.541 5.311 2.031-11.172 1.228.205c.146.024.288.069.433.101-.758.877-1.233 2.005-1.233 3.252v7.184c-1.161.414-2 1.514-2 2.816v1h-6.5c-1.307 0-2.481.726-3.065 1.895l-.053.105h-4.382v-8h-2v4h-4v-3.854c0-2.887 1.435-5.567 3.837-7.169zm42.163 20.023c-1.103 0-2-.897-2-2s.897-2 2-2 2 .897 2 2-.897 2-2 2zm-2.618 1h-4.764c.84-.734 1.382-1.799 1.382-3s-.542-2.266-1.382-3h4.764c-.84.734-1.382 1.799-1.382 3s.542 2.266 1.382 3zm-9.382-3c0-1.103.897-2 2-2s2 .897 2 2-.897 2-2 2-2-.897-2-2zm-.618 3h-4.764c.84-.734 1.382-1.799 1.382-3s-.542-2.266-1.382-3h4.764c-.84.734-1.382 1.799-1.382 3s.542 2.266 1.382 3zm-7.382-5c1.103 0 2 .897 2 2s-.897 2-2 2-2-.897-2-2 .897-2 2-2zm-2.618 5h-3.939c.345-.591.557-1.268.557-2 0-1.986-1.456-3.64-3.356-3.948l-.026-.052h6.764c-.84.734-1.382 1.799-1.382 3s.542 2.266 1.382 3zm-11.103 6h-6.279v-4h7.613zm2-6h-11.279c-1.654 0-3-1.346-3-3v-5h4v2.586l-1.707 1.707 1.414 1.414 1.707-1.707h6.204l.605-1.211c.244-.486.733-.789 1.277-.789s1.033.303 1.276.789l.606 1.211h.618c1.103 0 2 .897 2 2s-.897 2-2 2zm37.721-3c0 1.654-1.346 3-3 3h-.382c.84-.734 1.382-1.799 1.382-3s-.542-2.266-1.382-3h.382c1.654 0 3 1.346 3 3zm-30-5v-1c0-.552.449-1 1-1h10c.551 0 1 .448 1 1v1zm12-9.437v-1.563c0-.411-.064-.805-.158-1.187l6.158-3.519v2.706c0 .043.011.084.013.126zm9-2.563c-.551 0-1-.448-1-1v-4c0-.552.449-1 1-1h3v6zm9 1h3c1.304 0 2.416.836 2.829 2h-6.829c-1.654 0-3-1.346-3-3v-6c0-1.654 1.346-3 3-3h6.829c-.413 1.164-1.525 2-2.829 2h-3c-1.103 0-2 .897-2 2v4c0 1.103.897 2 2 2z"/><circle cx="23" cy="16" r="1"/><circle cx="13" cy="16" r="1"/><path d="m22.121 23.293.586-.586-1.414-1.414-.586.586c-1.446 1.445-3.968 1.445-5.414 0l-.586-.586-1.414 1.414.586.586c1.1 1.101 2.564 1.707 4.121 1.707s3.021-.606 4.121-1.707z"/></g></g></svg>